<svg xmlns:rdf="http://www.w3.org/1999/02/22-rdf-syntax-ns#" xmlns="http://www.w3.org/2000/svg" viewBox="0 0 171.21286 40.757071" height="100%" width="100%" version="1.0" xmlns:cc="http://creativecommons.org/ns#" xmlns:dc="http://purl.org/dc/elements/1.1/">
 <g fill="#ccc">
  <path fill-rule="evenodd" d="m100 34.4h13c0-1.85-0.133-2.22-3.2-2.22 0.49-1.47 2.48-5.03 3.59-5.03 0.981 0 2.15 0.0542 2.15 2.29 0 2.54 4.27 6.63 5.31 4.96 1.54-2.49-2.65-1.73-2.65-7.73 0-8.21 4.79-7.04 4.79-11.7 0-2.31-0.637-2.62-0.637-4.27 0-2.18 1.92-2.05 1.55-3.86-0.259-1.25-0.46-2.25-0.61-3.76-0.107-1.07-0.142-2.21-1.25-2.17-1.31 0.054-1.8 2.36-3.84 2.52-2.03 0.165-3.76-1.73-4.54-1.46-0.778 0.268-0.533 2.38-0.0716 3.88 0.726 2.36 2.31 5.42-0.577 5.89-2.89 0.462-7.85 0.923-11.4 5.65-3.58 4.73-3.45 10.3-4.85 12-4.7 5.77-9.52 3.4-9.52 8.19 0 2.15 3.64 3.69 4.22 3 0.577-0.692-4.9-2.75 1.23-5.19 5.24-2.08 5.71-2.51 7.31-1.04z"/>
  <path d="m66.1 35.8c-5.31-0.285-6.5-0.433-7.69-0.956-0.723-0.319-1.27-0.425-2.2-0.428-0.933-0.003-1.15-0.0739-2.03-0.651-0.998-0.655-2.35-2.11-2.35-2.54 0-0.139 0.112-0.318 0.369-0.589 0.346-0.365 0.363-0.403 0.287-0.601-0.154-0.398-0.106-0.979 0.13-1.57 0.2-0.5 0.24-0.552 0.442-0.573 0.172-0.0173 0.299 0.0451 0.569 0.279 0.601 0.52 0.791 0.299 0.722-0.843-0.114-1.89 0.359-5.12 0.874-5.98 0.82-1.36 4.03-4.25 5.62-5.06 1.05-0.533 3.68-0.964 5.23-0.857 1.24 0.0852 2.74 0.521 3.58 1.04 0.538 0.332 0.644 0.308 1.32-0.302 0.659-0.594 0.8-0.684 1.23-0.794 0.26-0.0664 0.382-0.145 0.478-0.31 0.197-0.337 0.289-1.23 0.302-2.92 0.0142-1.8 0.007-1.82-0.739-2.75-1.11-1.38-1.8-2.64-1.93-3.52-0.115-0.764-0.0589-4.75 0.0695-4.98 0.168-0.304 0.515-0.454 1.04-0.454 0.878-0.00054 1.63 0.524 2.31 1.6 0.46 0.736 0.832 1.19 0.981 1.19 0.167 0 0.223-0.187 0.232-0.77 0.0144-0.954 0.266-1.26 1.09-1.34 0.418-0.0379 0.447-0.0296 0.653 0.191 0.295 0.316 1.17 2.11 1.61 3.31 0.698 1.89 0.92 2.88 1.01 4.5 0.0506 0.959 0.106 1.08 0.499 1.08 0.402 0 1.07 0.148 1.71 0.38 0.796 0.288 1.19 0.647 1.83 1.66 0.274 0.432 0.653 1 0.844 1.27 0.19 0.264 0.414 0.653 0.497 0.863 0.287 0.728 0.509 1.09 0.837 1.36 0.411 0.337 0.608 0.651 0.711 1.13 0.111 0.52 0.0291 0.753-0.553 1.56-0.8 1.12-1.15 1.44-1.8 1.64-0.303 0.0955-0.913 0.231-1.36 0.302-1.2 0.191-1.3 0.223-1.52 0.523-0.258 0.342-0.256 0.615 0.008 1 0.401 0.587 0.45 0.74 0.45 1.41 0 0.888-0.125 1.6-0.382 2.19-0.177 0.407-0.236 0.677-0.293 1.36-0.0869 1.03-0.214 1.51-0.522 1.96-0.259 0.383-0.668 0.628-1.26 0.756-0.876 0.19-1.28 0.577-1.28 1.22 0.002 0.653 0.174 0.846 1.6 1.8 0.701 0.466 1.35 0.938 1.45 1.05 0.377 0.438 0.27 0.83-0.295 1.08-0.468 0.207-1.98 0.382-3.02 0.348-1.06-0.0349-1.32-0.136-2.52-0.963-0.43-0.297-1.01-0.68-1.3-0.85-0.282-0.171-0.653-0.469-0.823-0.662-0.172-0.196-0.394-0.368-0.501-0.389-0.283-0.0541-0.716 0.0634-1.54 0.417-0.546 0.235-0.872 0.328-1.27 0.363-0.966 0.0848-1.03 0.247-0.415 1.14 0.54 0.789 0.531 0.985-0.0685 1.4-0.23 0.158-0.468 0.243-0.824 0.295-0.549 0.0794-0.533 0.0794-2.11-0.005z"/>
  <path d="m22.8 8.95c2.74-0.119 9.76-0.877 11.3-0.952 3.08-0.149 5.78-3.33 7.66-4.52 0.371-0.237-1.83-1.37-0.894-1.5 0.875-0.127 2.56-0.538 2.94 0.987 1.36 0.0513 2.55 0.69 3.15 0.991 0.714 0.357 1.19 1.67 1.19 1.67l4.17 1.55s0 1.43-0.833 1.79c-0.833 0.357-3.09 0.392-3.09 0.392l-1.2-0.0349c1.06 0.417 3 1.19 2.91 1.49-0.351 1.39-3.02 0.581-4.45 0.652l-2.86 2.14s-0.273 1.57-0.98 2.6c-0.713 1.05-2.58 2.72-2.59 3.71-0.0145 0.994-0.238 2.38-0.238 2.38s2.14 5.36 2.86 6.55c0.714 1.19 0.952 2.38 2.26 2.86 1.31 0.476 1.51 0.0598 1.99 0.476 0.439 0.376 0.0595 1.31 0.0595 1.31h-2.77s-3.81-3.81-4.88-5.95-2.86-4.76-2.86-4.76-1.07-0.952-1.79 0c-1.62 1.85-3.3 3.43-4.29 5.68-0.575 1.31-3.7 3.7-3.7 3.7s0.25 1.13-0.307 2.35c-0.465 0.521-1.58-0.582-1.58-0.582l-0.0145-2.33s1.95-2.23 2.98-3.81c1.97-2.66 2.02-5.12 2.02-5.12l-8.21-1.9s0 2.74-0.119 3.69c-0.119 0.952-1.55 4.76-1.55 4.76l-0.238 1.67s1.88 2.5 2.82 3.95c0.164 0.242 1.38-0.361 1.68-0.146 0.305 0.218 0.197 1.49 0.197 1.49l-3.07 0.179-0.298-1.4-4.32-3.96s1.31-5.12 0.714-5.6c-0.595-0.476-5.12-3.57-5.12-3.57s-0.714 2.26-2.26 3.21c-1.55 0.952-4.17 1.31-5.12 3.57-0.952 2.26-1.67 3.45-1.67 3.45s-0.536 1.16-0.179 2.23c1.07 0 1.46 0.595 1.46 0.595l-0.804 1.1-1.64-0.0308-1.36-1.4 2.32-7.6s2.86-2.14 3.21-3.1c0.357-0.952 0.238-7.14 1.31-8.21s2.14-2.26 2.14-2.26-0.952-4.29 0.595-7.86c2.84-3.85 8.02-8.73 6.79-2.98-0.932 2.8-4.52 4.05-3.93 6.31 3 1.16 7.1 0.034 10.4 0h0.00011v0.00003z"/>
  <path d="m160 35.3c0.521-0.149 0.552-0.333 0.124-0.74-0.166-0.157-0.516-0.437-0.78-0.621-0.326-0.228-0.527-0.429-0.631-0.632-0.54-1.06-0.537-2.87 0.008-4.51 0.24-0.722 0.499-2.06 0.499-2.58 0-0.101 0.219-0.844 0.487-1.65 0.268-0.808 0.592-1.88 0.72-2.39l0.233-0.921 0.473-0.496c0.546-0.573 0.703-0.922 0.876-1.95 0.106-0.628 0.145-1.02 0.326-3.21 0.0638-0.776 0.0939-0.895 0.386-1.52 0.226-0.486 0.358-0.905 0.463-1.46 0.171-0.909 0.805-3.13 1-3.52l0.137-0.268 0.217 0.112c0.12 0.0618 0.637 0.256 1.15 0.431 1.21 0.413 1.48 0.568 2.08 1.18 0.42 0.428 0.522 0.582 0.652 0.98 0.135 0.417 0.36 0.666 0.542 0.752 0.0685 0.0172 0.162 0.0214 0.262-0.0573 0.144-0.113 0.242-0.134 0.469-0.0974 0.338 0.054 0.603-0.085 0.732-0.383 0.0454-0.105 0.175-0.3 0.289-0.434 0.212-0.249 0.401-0.631 0.401-0.809 0-0.0548-0.26-0.526-0.577-1.05-0.863-1.42-1.45-2.64-1.66-3.44-0.237-0.911-0.31-1.04-0.924-1.57-0.577-0.503-0.651-0.633-0.495-0.871 0.234-0.358 0.42-1.48 0.262-1.58-0.0352-0.0218-0.159 0.128-0.275 0.332-0.245 0.432-0.624 0.885-0.688 0.821-0.0241-0.0241 0.006-0.235 0.0664-0.469 0.128-0.495 0.138-0.653 0.0391-0.653-0.0391 0-0.317 0.245-0.618 0.545l-0.547 0.545-0.886 0.0559c-1.55 0.0977-2.48 0.373-3.69 1.09-1.46 0.864-2.12 1.49-3.57 3.39-1.57 2.06-1.66 2.14-2.54 2.58-1.18 0.583-2.81 0.902-4.98 0.975-1.76 0.0597-3.14-0.12-5.55-0.722-1.58-0.395-2.25-0.488-3.47-0.486-1.34 0.003-2.34 0.138-3.43 0.463-0.591 0.176-0.912 0.224-1.86 0.275-1.37 0.0747-2.01 0.198-2.68 0.518-1.51 0.729-2.21 2.15-2.53 5.22-0.0654 0.618-0.0924 1.96-0.0895 4.43 0.005 3.84 0.0791 5.26 0.303 5.78l0.137 0.315 0.0787-0.199c0.0433-0.11 0.149-1.32 0.155-1.39 0.006-0.0657-0.032 1.33-0.005 1.78 0.0266 0.459 0.0829 0.87 0.125 0.912 0.0773 0.0773 0.188-0.56 0.355-1.27 0.0552-0.236 0.003 0.205 0.009 0.856 0.009 0.918 0.229 1.13 0.545 0.866 0.149-0.125 0.201-1.48 0.254-1.43 0.127 0.127-0.177 1.64-0.089 1.35 0.0467-0.156 0.352-0.445 0.401-0.445 0.124 0 0.256-0.435 0.663-2.17 0.193-0.826 0.406-1.67 0.474-1.88 0.107-0.328 0.134-0.948 0.207-4.84 0.0929-4.91 0.0675-4.64 0.579-5.95 0.285-0.727 0.532-1.1 0.732-1.1 0.167 0 0.192 0.315 0.0421 0.533-0.218 0.318-0.532 0.948-0.688 1.38-0.141 0.391-0.165 0.593-0.164 1.35 0.002 1.2 0.151 1.92 0.781 3.81 0.651 1.95 0.711 2.42 0.422 3.31-0.21 0.651-0.549 1.2-1.21 1.94-0.255 0.288-0.498 0.639-0.54 0.779-0.0426 0.142-0.103 1.36-0.136 2.73l-0.0596 2.48-0.254 1.09c-0.314 1.35-0.321 1.53-0.0591 1.66 0.107 0.054 0.29 0.121 0.407 0.149 0.285 0.0686 0.321 0.149 0.272 0.611-0.0351 0.336-0.0168 0.433 0.121 0.644 0.324 0.494 1.01 0.744 1.73 0.626 0.496-0.0815 0.602-0.135 0.602-0.302 0-0.338-0.825-1.48-1.35-1.86-0.263-0.193-0.34-0.298-0.375-0.51-0.087-0.526-0.0479-2.82 0.0584-3.43 0.241-1.38 0.892-2.73 1.99-4.14 0.439-0.564 1.3-1.39 1.49-1.44 0.14-0.0319 0.127 0.105-0.0845 0.925-0.243 0.94-0.215 1.13 0.309 2.16 0.234 0.458 0.46 0.944 0.502 1.08 0.0426 0.136 0.16 0.916 0.261 1.73 0.209 1.68 0.412 2.76 0.567 2.99 0.0582 0.0889 0.232 0.226 0.386 0.304 0.319 0.163 0.356 0.22 0.61 0.934 0.262 0.738 0.305 0.77 1.1 0.816 0.61 0.0354 0.682 0.0257 0.861-0.116 0.107-0.0853 0.195-0.205 0.195-0.266 0-0.164-0.723-0.999-1.19-1.37-0.357-0.286-0.425-0.384-0.591-0.85-0.103-0.29-0.336-0.875-0.517-1.3-0.602-1.41-0.634-2.34-0.174-5 0.36-2.08 1.18-4.23 1.89-5.48 0.143-0.253 0.344-0.478 0.706-0.675 0.323-0.01 0.606 0.144 0.953 0.265 3.13 1.68 3.6 1.78 9.37 2 1.17 0.0452 2.15 0.106 2.18 0.135 0.109 0.0981 0.178 2.18 0.117 3.52-0.0949 2.07-0.272 4.31-0.462 5.86-0.221 1.79-0.226 2.21-0.03 2.27 0.235 0.0746 0.382 0.383 0.429 0.901 0.0246 0.268 0.0828 0.526 0.129 0.572 0.147 0.146 1.4 0.1 1.77-0.0649l0.315-0.14-0.448-0.473c-0.95-1-1.03-1.23-1.03-2.85 0.002-1.01 0.024-1.22 0.202-1.91 0.188-0.733 0.456-1.4 0.466-1.17 0.003 0.0584 0.0343 0.313 0.0707 0.567 0.0364 0.253 0.101 1.35 0.144 2.44 0.0796 2.03 0.141 2.51 0.32 2.51 0.153 0 0.303 0.274 0.389 0.709 0.0423 0.214 0.0912 0.457 0.109 0.541 0.0193 0.0925 0.12 0.183 0.255 0.23 0.272 0.0948 1.14 0.0915 1.48-0.006z"/>
 </g>
 <text style="word-spacing:0px;letter-spacing:0px" xml:space="preserve" transform="scale(.916 1.09)" font-size="34.7px" y="25.010046" x="-3.2397721" font-family="Sans" line-height="125%" fill="#d35f5f"><tspan x="-3.2397721" y="25.010046"><tspan font-size="34.7px" font-style="italic" font-family="Pecita" line-height="125%" fill="#d35f5f">Streichelzoo</tspan></tspan></text>
</svg>
