<?xml version="1.0" standalone="no"?>
<!DOCTYPE svg PUBLIC "-//W3C//DTD SVG 20010904//EN"
 "http://www.w3.org/TR/2001/REC-SVG-20010904/DTD/svg10.dtd">
<svg version="1.0" xmlns="http://www.w3.org/2000/svg"
 width="700.000000pt" height="700.000000pt" viewBox="0 0 700.000000 700.000000"
 preserveAspectRatio="xMidYMid meet">
<metadata>
Created by potrace 1.11, written by Peter Selinger 2001-2013
</metadata>
<g transform="translate(0.000000,700.000000) scale(0.100000,-0.100000)"
fill="#000000" stroke="none">
<path d="M5677 6111 c-6 -2 -30 -11 -52 -21 -22 -10 -51 -21 -65 -25 -67 -21
-184 -97 -260 -169 -99 -95 -130 -134 -373 -466 -177 -243 -287 -350 -443
-431 -78 -41 -252 -104 -382 -139 -24 -6 -50 -14 -58 -17 -8 -3 -14 1 -14 10
0 14 -4 14 -45 0 -46 -15 -63 -29 -22 -18 16 4 18 3 7 -3 -14 -9 -174 -43
-265 -56 -22 -3 -56 -8 -75 -11 -81 -12 -100 -13 -100 -5 0 4 -19 2 -42 -4
-24 -7 -74 -14 -113 -16 -183 -7 -175 -7 -175 10 0 15 -6 15 -50 6 -27 -5 -50
-13 -50 -18 0 -4 -7 -5 -15 -2 -8 4 -15 12 -15 20 0 11 -6 11 -38 0 -21 -8
-62 -12 -92 -10 -117 6 -238 13 -315 19 -209 15 -476 19 -625 11 -411 -24
-773 -165 -978 -380 -161 -169 -235 -354 -287 -711 -4 -22 -8 -51 -10 -65 -2
-14 -7 -50 -10 -80 -4 -30 -10 -80 -14 -110 -8 -51 -9 -47 -10 44 0 55 -3 97
-5 95 -2 -2 -6 -29 -10 -59 -3 -30 -9 -79 -12 -107 -5 -45 -4 -53 10 -53 17 0
17 -1 -1 -105 -13 -76 -57 -247 -80 -315 -40 -112 -90 -202 -243 -429 -157
-235 -189 -289 -225 -384 -33 -87 -32 -91 8 -83 17 4 41 9 52 11 64 14 175 78
245 143 197 181 318 437 471 995 l54 197 36 0 c34 0 35 -1 39 -42 7 -65 5
-196 -3 -260 -3 -32 -3 -58 2 -58 5 0 5 -21 0 -47 -20 -114 -32 -164 -39 -154
-6 11 -33 -78 -28 -95 3 -14 -21 -82 -55 -149 -50 -101 -114 -192 -190 -273
-161 -169 -189 -207 -222 -306 -39 -116 -43 -180 -33 -584 2 -112 7 -175 15
-180 9 -6 50 -269 44 -282 -4 -7 32 -19 69 -20 19 -1 27 -4 18 -7 -10 -2 -18
-8 -18 -12 0 -9 93 -9 100 0 3 4 28 8 55 10 174 10 280 98 313 262 9 44 8 253
-2 362 -29 326 -10 432 109 600 53 74 179 194 274 260 195 135 361 260 408
306 29 28 78 87 110 132 70 100 137 173 178 195 20 10 50 15 89 13 50 -2 58 0
53 14 -7 18 0 21 63 30 174 22 316 25 394 8 32 -7 115 -37 185 -67 143 -61
273 -104 321 -108 l33 -2 -59 -54 c-32 -30 -133 -114 -224 -187 -91 -73 -193
-160 -226 -192 -159 -150 -266 -330 -301 -501 -9 -42 -19 -79 -23 -82 -4 -3
-12 -21 -19 -40 -9 -29 -9 -35 4 -43 8 -4 14 -11 11 -15 -2 -4 -7 -41 -11 -82
-14 -171 -23 -236 -41 -330 -8 -41 -16 -85 -19 -97 -2 -13 -9 -31 -15 -40 -9
-15 -10 -13 -7 15 5 41 -8 42 -22 1 -11 -32 -6 -54 10 -44 28 18 -14 -73 -57
-125 -35 -41 -51 -47 -165 -55 -126 -10 -126 -10 -194 0 -93 13 -120 14 -266
15 -309 2 -542 -82 -615 -221 -28 -54 -30 -163 -5 -228 72 -188 225 -270 299
-161 25 36 26 61 6 230 -3 27 1 55 8 70 34 64 175 117 324 121 95 2 497 -11
503 -17 2 -2 -31 -5 -75 -6 -43 0 -83 -2 -89 -3 -5 -2 -41 -3 -79 -4 -38 0
-67 -4 -63 -7 3 -3 46 -6 96 -5 50 0 143 0 206 1 86 0 114 3 112 13 -3 16 139
24 310 17 93 -4 110 -7 63 -9 -36 -2 -78 -5 -95 -6 -16 -2 -63 -3 -104 -4 -41
0 -72 -3 -69 -7 3 -3 106 -5 229 -5 196 0 224 2 227 15 3 14 36 16 269 16 147
0 264 -2 262 -4 -4 -4 -196 -14 -322 -18 -31 0 -55 -3 -53 -5 6 -6 599 -5 637
1 19 3 62 8 97 11 110 9 159 27 204 78 37 41 43 63 23 93 -19 30 -59 48 -155
71 -38 9 -70 22 -70 28 0 8 -14 10 -47 4 -45 -7 -140 -1 -181 10 -1 1 15 27
35 58 148 228 263 326 360 308 51 -9 147 -108 253 -260 172 -246 251 -334 336
-375 90 -44 179 -2 252 121 23 38 42 73 42 77 0 4 -14 16 -30 26 -42 24 -155
121 -204 174 -68 73 -137 173 -172 247 -42 91 -49 115 -32 115 9 0 14 16 15
48 l2 47 -19 -40 c-10 -22 -19 -35 -20 -30 0 6 -3 27 -6 48 -3 21 -3 46 1 55
10 22 12 92 4 92 -4 0 -2 21 3 48 14 65 75 188 149 302 133 203 182 331 178
467 -3 106 -38 202 -160 446 -16 31 -27 57 -25 57 7 0 121 -182 144 -231 22
-45 42 -128 58 -234 4 -27 8 -250 9 -495 1 -245 6 -483 11 -530 5 -47 8 -122
7 -168 -2 -76 -1 -83 15 -78 14 5 20 -3 31 -41 7 -27 30 -88 53 -138 38 -85
42 -107 35 -185 -3 -36 17 -41 23 -5 l6 30 8 -29 c18 -71 90 -142 161 -160
l30 -8 -30 -13 -30 -13 43 -1 c23 -1 42 3 42 7 0 4 42 8 93 8 106 0 147 15
167 64 31 75 -10 166 -176 386 -86 114 -157 264 -125 264 6 0 11 18 11 43 l-1
42 -14 -30 -13 -30 -1 39 c-1 30 2 37 14 32 12 -4 15 7 15 66 0 73 -5 85 -14
33 -19 -100 -26 -109 -27 -34 -1 30 -3 68 -5 84 -6 58 -7 341 0 440 4 55 14
138 23 185 9 47 16 91 16 99 0 8 9 16 19 19 10 2 18 12 19 21 0 9 2 26 3 38 1
12 -1 20 -6 17 -11 -7 -11 -5 12 62 36 107 99 216 230 404 72 102 134 192 140
200 5 8 20 31 33 50 59 91 143 304 149 381 2 19 7 25 19 22 15 -4 18 2 17 38
0 42 -1 42 -15 18 -11 -19 -13 -20 -9 -4 10 37 17 96 31 235 2 19 7 67 11 105
5 39 8 77 7 86 0 10 7 16 20 15 18 -1 21 5 22 47 0 26 0 47 -2 47 -1 0 -7 -18
-13 -41 -18 -64 -23 -38 -10 43 16 97 15 91 45 192 38 131 81 210 152 281 57
59 166 125 204 125 8 0 19 4 25 10 5 5 94 30 198 55 276 67 365 109 450 218
42 53 85 162 92 235 3 26 7 59 9 75 3 20 0 27 -13 29 -9 0 -23 2 -30 2 -7 1
-16 7 -21 14 -6 10 -18 11 -48 4 -50 -11 -146 1 -237 30 -117 37 -171 80 -381
309 -120 131 -191 162 -368 163 -59 1 -113 -1 -120 -3z m-1506 -1897 c122 -42
245 -87 273 -100 l51 -23 -50 6 c-99 12 -233 59 -415 147 -52 25 -92 45 -88
46 3 0 106 -34 229 -76z m538 -331 c1 -13 -2 -23 -6 -23 -5 0 -9 19 -9 43 -1
30 1 36 6 22 5 -11 9 -30 9 -42z m-24 -116 c-9 -19 -32 -49 -52 -68 l-37 -34
31 40 c39 51 63 98 64 127 2 20 3 19 6 -4 2 -15 -3 -43 -12 -61z"/>
<path d="M6914 5542 c-8 -26 -8 -44 -2 -48 16 -10 19 2 16 47 l-3 44 -11 -43z"/>
<path d="M2465 4814 l-60 -12 101 -1 c83 -1 101 2 101 14 0 17 -45 17 -142 -1z"/>
<path d="M5032 2387 c-14 -59 -11 -80 9 -60 5 5 9 34 7 64 l-3 54 -13 -58z"/>
<path d="M5041 2275 c-1 -11 -4 -29 -6 -40 -13 -74 -15 -104 -5 -110 16 -10
21 16 17 96 -1 41 -4 65 -6 54z"/>
<path d="M2359 1508 c0 -13 -2 -30 -4 -38 -10 -51 -9 -65 4 -65 11 0 15 16 17
63 1 34 -2 62 -7 62 -5 0 -9 -10 -10 -22z"/>
<path d="M1139 1323 c-5 -16 -12 -34 -14 -41 -3 -8 1 -12 12 -10 11 2 17 15
18 41 3 44 -2 47 -16 10z"/>
<path d="M3818 1157 c-48 -13 -48 -23 -1 -22 27 1 39 6 41 18 2 9 2 16 0 16
-2 -1 -20 -6 -40 -12z"/>
<path d="M3976 984 c-14 -41 -14 -45 1 -42 11 2 17 15 18 46 1 23 1 42 -1 42
-1 0 -9 -21 -18 -46z"/>
<path d="M977 713 c-4 -21 -9 -53 -13 -70 -5 -27 -3 -33 10 -33 13 0 16 12 16
70 0 39 -2 70 -4 70 -2 0 -6 -17 -9 -37z"/>
</g>
</svg>
